<?xml version="1.0" encoding="utf-8"?>
<!-- Generator: Adobe Illustrator 26.1.0, SVG Export Plug-In . SVG Version: 6.00 Build 0)  -->
<svg version="1.1" id="Слой_1" xmlns="http://www.w3.org/2000/svg" xmlns:xlink="http://www.w3.org/1999/xlink" x="0px" y="0px"
	 viewBox="0 0 1491.1 794.6" style="enable-background:new 0 0 1491.1 794.6;" xml:space="preserve">
<style type="text/css">
	.st0{fill:#364FC7;}
	.st1{fill:#364FC7;stroke:#364FC7;stroke-width:10;stroke-miterlimit:10;}
</style>
<g>
	<path d="M222.5,300.3l-14.4-37.7H85.9l-14.4,38.5c-5.6,15-10.4,25.2-14.4,30.5c-4,5.3-10.5,7.9-19.5,7.9c-7.7,0-14.4-2.8-20.3-8.4
		c-5.9-5.6-8.8-12-8.8-19.1c0-4.1,0.7-8.3,2-12.7s3.6-10.5,6.8-18.2L94.3,85.8c2.2-5.6,4.8-12.3,7.9-20.2s6.4-14.4,9.8-19.6
		c3.5-5.2,8.1-9.4,13.7-12.6c5.7-3.2,12.7-4.8,21-4.8c8.5,0,15.5,1.6,21.2,4.8c5.7,3.2,10.2,7.3,13.7,12.4s6.4,10.5,8.8,16.3
		c2.4,5.8,5.4,13.6,9.1,23.3l78.5,194c6.2,14.8,9.2,25.5,9.2,32.2c0,7-2.9,13.4-8.7,19.2c-5.8,5.8-12.8,8.7-21,8.7
		c-4.8,0-8.9-0.9-12.3-2.6c-3.4-1.7-6.3-4-8.6-7c-2.3-2.9-4.8-7.5-7.5-13.5C226.7,310.3,224.4,304.9,222.5,300.3z M101.9,216.8h89.8
		L146.4,92.7L101.9,216.8z"/>
	<path d="M414.1,205.7h-21.3v96.6c0,12.7-2.8,22.1-8.4,28.1c-5.6,6-12.9,9-21.9,9c-9.7,0-17.2-3.2-22.6-9.4s-8-15.5-8-27.7V71
		c0-13.1,2.9-22.6,8.8-28.5s15.4-8.8,28.5-8.8h99c13.7,0,25.4,0.6,35.1,1.7c9.7,1.2,18.5,3.5,26.3,7.1c9.4,4,17.8,9.6,25,17
		s12.8,16,16.5,25.7c3.8,9.8,5.6,20.1,5.6,31.1c0,22.4-6.3,40.3-19,53.7c-12.7,13.4-31.8,22.9-57.5,28.5c10.8,5.7,21.1,14.2,31,25.4
		c9.8,11.2,18.6,23.1,26.3,35.8c7.7,12.7,13.7,24.1,18,34.2s6.5,17.2,6.5,21c0,4-1.3,7.9-3.8,11.8c-2.5,3.9-6,7-10.4,9.2
		s-9.4,3.4-15.2,3.4c-6.8,0-12.6-1.6-17.2-4.8c-4.7-3.2-8.7-7.3-12-12.2s-7.9-12.2-13.6-21.7l-24.4-40.6
		c-8.8-14.9-16.6-26.3-23.5-34c-6.9-7.8-13.9-13.1-21-16C433.8,207.2,424.9,205.7,414.1,205.7z M448.9,79.4h-56.2V162h54.5
		c14.6,0,26.9-1.3,36.9-3.8c10-2.5,17.6-6.8,22.9-12.9c5.3-6.1,7.9-14.5,7.9-25.1c0-8.3-2.1-15.7-6.4-22
		c-4.2-6.4-10.1-11.1-17.6-14.2C483.9,80.9,469.8,79.4,448.9,79.4z"/>
	<path d="M808.6,83.9h-66.5v218.4c0,12.6-2.8,21.9-8.4,28s-12.8,9.1-21.7,9.1c-9,0-16.4-3.1-22-9.2c-5.7-6.2-8.5-15.5-8.5-27.9V83.9
		H615c-10.4,0-18.1-2.3-23.2-6.9c-5.1-4.6-7.6-10.6-7.6-18.2c0-7.8,2.6-14,7.9-18.5c5.3-4.5,12.9-6.8,22.9-6.8h193.6
		c10.5,0,18.3,2.3,23.5,7c5.1,4.7,7.7,10.7,7.7,18.2S837.2,72.4,832,77C826.8,81.6,819,83.9,808.6,83.9z"/>
	<path d="M1074,80.6H936.8v73.8h126.3c9.3,0,16.2,2.1,20.8,6.2c4.6,4.2,6.9,9.7,6.9,16.5s-2.3,12.4-6.8,16.7s-11.5,6.5-20.9,6.5
		H936.8v85.5h141.9c9.6,0,16.8,2.2,21.6,6.7c4.8,4.4,7.3,10.4,7.3,17.7c0,7.1-2.4,12.9-7.3,17.3s-12.1,6.7-21.6,6.7H913.2
		c-13.3,0-22.8-2.9-28.6-8.8c-5.8-5.9-8.7-15.4-8.7-28.5V71c0-8.8,1.3-15.9,3.9-21.4s6.7-9.6,12.2-12.1c5.5-2.5,12.6-3.8,21.2-3.8
		H1074c9.7,0,16.9,2.2,21.6,6.5s7.1,10,7.1,16.9c0,7.1-2.4,12.8-7.1,17.1S1083.7,80.6,1074,80.6z"/>
</g>
<g>
	<g>
		<path class="st0" d="M1012.8,675.5c-39.5,67.3-125.3,82-196.8,85.7c-21.2,1.1-42.5,1-63.7-1.2c-19.5-2.1-38.2-7.2-57.1-12.3
			c-14.8-4-29.7-7.9-44.3-12.8c-15.6-5.2-28.5-10.9-43.4-17.6c-36.7-16.5-72.8-35.7-103.9-61.4c-25.8-21.4-45.5-52.2-44.2-86.7
			c0.3-7,0.9-11.2,2.6-18.3c1.6-6.7,3.8-13.3,6.2-19.8c4.7-12.2,11-20.8,21-29.6c12.3-10.9,25.1-19.8,41-24.6
			c14.2-4.3,27.2-5.8,42.1-5.6c18.4,0.2,36.5,2.3,53.8,8.6c16.6,6,30.9,16.1,42.5,29.5c10.3,11.9,18.1,26.4,21.1,41.9
			c3,15.3-1.6,32.9-7.3,47.7c-12.9,33.4-44.4,55.1-75.7,69.7c-33.2,15.4-69.5,24.1-105.1,32c-35.1,7.8-70.9,12.8-106.8,14.9
			c-29.1,1.7-58.7-0.7-87.7-3.7c-25.4-2.6-51.1-6-75.6-14.1c-8.5-2.8-16.8-5.9-25-9.3c-0.7-0.3-1.3-0.5-2-0.8
			c-0.3-0.1-2-0.8-0.7-0.3c1.3,0.5-0.5-0.2-0.8-0.3c-0.7-0.3-1.4-0.6-2-0.9c-2.5-1.1-5-2.2-7.4-3.3c-5-2.3-10.1-4.7-15-7.2
			c-21.8-11.1-43.8-25-61.6-39.7c-20.9-17.4-38.8-36.9-52.4-59.8c-14.9-25-24.1-53.1-26.5-82.2c-2-24.8,1.6-46.1,10.2-69.7
			c6.5-17.8,15.9-34.5,26.6-50.1c3.2-4.7,0.9-11.6-3.8-14.4c-5.2-3-11.2-0.9-14.4,3.8C36,394,21.1,428.6,17.3,465.5
			c-2.7,27.1,1.6,55.3,10.4,80.9c19.4,56.3,61.9,100.2,111.7,131.2c38.8,24.2,82.4,42.6,127.6,49.9c33.2,5.4,67,8.5,100.6,9.2
			c35,0.8,70.3-3.3,104.7-9.1c37.6-6.3,75.6-15.1,111.6-27.5c36.6-12.6,73.6-31,99-61.2c12.6-15,20.8-33.5,25.2-52.4
			c4.2-18,4.5-35.8-1.8-53.3c-13.5-37.6-45.3-65.4-83.4-76.3c-18.5-5.3-38-6.7-57.2-6.6c-16.3,0.1-33,3.1-48.3,8.7
			c-17.3,6.4-31.9,17.1-45.4,29.6C461,499,453.4,511.4,448,525.5c-5.3,14-9,28.7-9.6,43.7c-0.7,19.1,4.1,38,12.7,54.9
			c18.7,36.7,53.4,61.4,88.1,81.8c18.1,10.7,37,20.1,56.2,28.8c15.9,7.2,31.9,14.3,48.4,19.9c15.3,5.2,31,9.4,46.7,13.6
			c20.8,5.6,41.3,10.7,62.7,12.9c44.4,4.5,90.4,1.1,134.3-6.9c39.4-7.2,76.9-21.7,108.4-46.8c14.3-11.3,25.9-25.6,35.1-41.2
			C1037.8,674.4,1019.6,663.8,1012.8,675.5L1012.8,675.5z"/>
	</g>
</g>
<path class="st1" d="M1300.8,11.3c-96.4,0-174.5,78.1-174.5,174.5s78.1,174.5,174.5,174.5s174.5-78.1,174.5-174.5
	S1397.2,11.3,1300.8,11.3z M1301.3,334.3c-82.3,0-149-66.7-149-149s66.7-149,149-149s149,66.7,149,149S1383.6,334.3,1301.3,334.3z"
	/>
<path d="M1322.7,372.1l-221.3,287.2l-96-56l135.9-320.1c29.5,54.2,87.2,91.1,153.6,91.1C1304.3,374.3,1313.6,373.5,1322.7,372.1z
	 M1181.8,411.3c-1.8-1.1-3.8-1.5-5.7-1.5c-4,0-7.8,2.1-10,5.8l-18.5,32c-3.2,5.5-1.3,12.5,4.2,15.7c5.5,3.2,12.5,1.3,15.7-4.2
	l18.5-32C1189.2,421.5,1187.3,414.5,1181.8,411.3z"/>
<path d="M1019.6,693.9l-11.1-6.4c-5.1-2.9-6.8-9.4-3.9-14.5l15.9-27.5c2.9-5.1,9.4-6.8,14.5-3.9l11.1,6.4c5.1,2.9,6.8,9.4,3.9,14.5
	l-15.9,27.5C1031.2,695.1,1024.7,696.9,1019.6,693.9z"/>
<polygon points="1028.4,676 995.9,653.2 1011,610.5 1052.4,634.4 "/>
<polygon points="1024.4,673.9 1060.2,690.4 1089.5,656 1043.3,629.3 "/>
</svg>
