<?xml version="1.0" encoding="utf-8"?>
<!-- Generator: Adobe Illustrator 26.1.0, SVG Export Plug-In . SVG Version: 6.00 Build 0)  -->
<svg version="1.1" id="Слой_1" xmlns="http://www.w3.org/2000/svg" xmlns:xlink="http://www.w3.org/1999/xlink" x="0px" y="0px"
	 viewBox="0 0 804.8 804.8" style="enable-background:new 0 0 804.8 804.8;" xml:space="preserve">
<style type="text/css">
	.st0{fill:#364FC7;}
	.st1{fill:#364FC7;stroke:#364FC7;stroke-width:10;stroke-miterlimit:10;}
</style>
<g>
	<g>
		<path class="st0" d="M269.5,679.6c-39.5,67.3-125.3,82-196.8,85.7c-21.2,1.1-42.5,1-63.7-1.2c-19.5-2.1-38.2-7.2-57.1-12.3
			c-14.8-4-29.7-7.9-44.3-12.8c-15.6-5.2-28.5-10.9-43.4-17.6c-36.7-16.5-72.8-35.7-103.9-61.4c-25.8-21.4-45.5-52.2-44.2-86.7
			c0.3-7,0.9-11.2,2.6-18.3c1.6-6.7,3.8-13.3,6.2-19.8c4.7-12.2,11-20.8,21-29.6c12.3-10.9,25.1-19.8,41-24.6
			c14.2-4.3,27.2-5.8,42.1-5.6c18.4,0.2,36.5,2.3,53.8,8.6c16.6,6,30.9,16.1,42.5,29.5c10.3,11.9,18.1,26.4,21.1,41.9
			c3,15.3-1.6,32.9-7.3,47.7c-12.9,33.4-44.4,55.1-75.7,69.7c-33.2,15.4-69.5,24.1-105.1,32c-35.1,7.8-70.9,12.8-106.8,14.9
			c-29.1,1.7-58.7-0.7-87.7-3.7c-25.4-2.6-51.1-6-75.6-14.1c-8.5-2.8-16.8-5.9-25-9.3c-0.7-0.3-1.3-0.5-2-0.8
			c-0.3-0.1-2-0.8-0.7-0.3c1.3,0.5-0.5-0.2-0.8-0.3c-0.7-0.3-1.3-0.6-2-0.9c-2.5-1.1-5-2.2-7.4-3.3c-5-2.3-10.1-4.7-15-7.2
			c-21.8-11.1-43.8-25-61.6-39.7c-20.9-17.4-38.8-36.9-52.4-59.8c-14.9-25-24.1-53.1-26.5-82.2c-2-24.8,1.6-46.1,10.2-69.7
			c6.5-17.8,15.9-34.5,26.6-50.1c3.2-4.7,0.9-11.6-3.8-14.4c-5.2-3-11.2-0.9-14.4,3.8c-20.8,30.5-35.7,65.1-39.4,102
			c-2.7,27.1,1.6,55.3,10.4,80.9c19.4,56.3,61.9,100.2,111.7,131.2c38.8,24.2,82.3,42.6,127.6,49.9c33.2,5.4,67,8.5,100.6,9.2
			c35,0.8,70.3-3.3,104.7-9.1c37.6-6.3,75.6-15.1,111.6-27.5c36.6-12.6,73.6-31,99-61.2c12.6-15,20.8-33.5,25.2-52.4
			c4.2-18,4.5-35.8-1.8-53.3c-13.5-37.6-45.3-65.4-83.4-76.3c-18.5-5.3-38-6.7-57.2-6.6c-16.3,0.1-33,3.1-48.3,8.7
			c-17.3,6.4-31.9,17.1-45.4,29.6c-11.2,10.3-18.8,22.7-24.2,36.9c-5.3,14-9,28.7-9.6,43.7c-0.7,19.1,4.1,38,12.7,54.9
			c18.7,36.7,53.4,61.4,88.1,81.8c18.1,10.7,37,20.1,56.2,28.8c15.9,7.2,31.9,14.3,48.4,19.9c15.3,5.2,31,9.4,46.7,13.6
			c20.8,5.6,41.3,10.7,62.7,12.9c44.4,4.5,90.4,1.1,134.3-6.9c39.4-7.2,76.9-21.7,108.4-46.8c14.3-11.3,25.9-25.6,35.1-41.2
			C294.5,678.5,276.3,667.9,269.5,679.6L269.5,679.6z"/>
	</g>
</g>
<path class="st1" d="M557.5,15.4C461.2,15.4,383,93.5,383,189.9s78.1,174.5,174.5,174.5S732,286.3,732,189.9S653.9,15.4,557.5,15.4z
	 M558,338.4c-82.3,0-149-66.7-149-149s66.7-149,149-149s149,66.7,149,149S640.3,338.4,558,338.4z"/>
<path d="M579.4,376.2L358,663.4l-96-56l135.9-320.1c29.5,54.2,87.2,91.1,153.6,91.1C561,378.4,570.3,377.6,579.4,376.2z
	 M438.5,415.4c-1.8-1.1-3.8-1.5-5.7-1.5c-4,0-7.8,2.1-10,5.8l-18.5,32c-3.2,5.5-1.3,12.5,4.2,15.7c5.5,3.2,12.5,1.3,15.7-4.2
	l18.5-32C445.9,425.6,444,418.6,438.5,415.4z"/>
<path d="M276.3,698l-11.1-6.4c-5.1-2.9-6.8-9.4-3.9-14.5l15.9-27.5c2.9-5.1,9.4-6.8,14.5-3.9l11.1,6.4c5.1,2.9,6.8,9.4,3.9,14.5
	l-15.9,27.5C287.9,699.2,281.4,701,276.3,698z"/>
<polygon points="285.1,680.1 252.6,657.3 267.7,614.6 309.1,638.5 "/>
<polygon points="281.1,678 316.9,694.5 346.2,660.1 300,633.4 "/>
</svg>
